<svg version="1.1" xmlns="http://www.w3.org/2000/svg" width="200" height="250" enable-background="new 0 0 128 168" viewBox="0 0 128 168"><rect fill="rgb(137,101,174,255)" id="5" x="0" y="0" width="200" height="250"></rect><ellipse id="5" fill="rgb(21,37,4,255)" cx="10.15279548224484" cy="92" rx="10" ry="20"></ellipse><ellipse id="5" fill="rgb(21,37,4,255)" cx="117.84720451775516" cy="92" rx="10" ry="20"></ellipse><ellipse id="5" fill="rgb(21,37,4,255)" cx="64" cy="84" rx="53.84720451775516" ry="68.91939151000636"></ellipse><ellipse fill="white" stroke-width="2" id="5" cx="46.53711696756034" cy="84" rx="12" ry="8.62974538854781"></ellipse><ellipse fill="white" stroke-width="2" id="5" cx="81.46288303243966" cy="84" rx="12" ry="8.62974538854781"></ellipse><ellipse fill="rgb(98,118,78,255)" id="5" cx="46.6523386742245" cy="82.06772360399282" rx="4" ry="4"></ellipse><ellipse fill="rgb(98,118,78,255)" id="5" cx="81.57810473910382" cy="82.06772360399282" rx="4" ry="4"></ellipse><ellipse fill="rgb(21,37,4,255)" id="5" cx="46.6523386742245" cy="82.06772360399282" rx="3" ry="3"></ellipse><ellipse fill="rgb(98,118,78,255)" id="5" cx="81.57810473910382" cy="82.06772360399282" rx="3" ry="3"></ellipse><ellipse fill="rgb(98,118,78,255)" id="5" cx="56" cy="108" rx="4.652438325383348" ry="4.652438325383348"></ellipse><ellipse fill="rgb(98,118,78,255)" id="5" cx="64" cy="100" rx="4.652438325383348" ry="11.63109581345837"></ellipse><ellipse fill="rgb(98,118,78,255)" id="5" cx="72" cy="108" rx="4.652438325383348" ry="4.652438325383348"></ellipse><path stroke="rgb(98,118,78,255)" fill="rgb(98,118,78,255)" id="5" stroke-width="1" d=" M 39.38423016949641 139.6107088289249  Q 64 135.4174238571719 88.6157698305036 139.6107088289249"></path><path stroke="rgb(98,118,78,255)" fill="none" id="5" stroke-width="3.673550065603118" d=" M 26 72.19464558553754 Q 41 62.19464558553755 56 72.19464558553754"></path><path stroke="rgb(98,118,78,255)" fill="none" id="5" stroke-width="3.673550065603118" d=" M 72 72.19464558553754 Q 87 62.19464558553755 102 72.19464558553754"></path><rect fill="white" id="5" x="46.53711696756034" y="82.06772360399282" width="2" height="2"></rect><rect fill="white" id="5" x="81.46288303243966" y="82.06772360399282" width="2" height="2"></rect></svg>